<?xml version="1.0" encoding="utf-8"?>
<!-- Generator: Adobe Illustrator 28.3.0, SVG Export Plug-In . SVG Version: 6.00 Build 0)  -->
<svg version="1.1" id="Layer_1" xmlns="http://www.w3.org/2000/svg" xmlns:xlink="http://www.w3.org/1999/xlink" x="0px" y="0px"
	 viewBox="0 0 213.12 213.38" style="enable-background:new 0 0 213.12 213.38;" xml:space="preserve">
<style type="text/css">
	.st0{fill:#F9DBA6;}
	.st1{clip-path:url(#SVGID_00000029734124815270896520000004483911272703615674_);}
	.st2{fill:none;stroke:#E2BB7A;stroke-width:3;stroke-linecap:round;stroke-linejoin:round;stroke-miterlimit:10;}
</style>
<g>
	<rect x="1.56" y="1.69" class="st0" width="210" height="210"/>
	<g>
		<g>
			<defs>
				<rect id="SVGID_00000064326860714217979100000017787031337423096246_" x="1.56" y="1.69" width="210" height="210"/>
			</defs>
			<clipPath id="SVGID_00000149351420362294829900000014945282688886723989_">
				<use xlink:href="#SVGID_00000064326860714217979100000017787031337423096246_"  style="overflow:visible;"/>
			</clipPath>
			<g style="clip-path:url(#SVGID_00000149351420362294829900000014945282688886723989_);">
				<g id="l1Udoj.tif_00000179638991986836249680000001058053375180896177_">
					<path class="st2" d="M264.66,202.75c0,0-47.35-3.66-71.43-3.92s-100.41,0.78-132.25,0s-72.25-8.89-72.25-8.89"/>
					<path class="st2" d="M279.35,193.34c0,0-35.92-4.18-67.76-4.7s-108.17,2.35-142.86,1.31c-34.7-1.05-70-6.53-103.27-14.9"/>
					<path class="st2" d="M366.29,175.9c0,0-108.58-7.32-136.33-4.7c-27.76,2.61-103.52,8.87-146.38,7.3s-71.02-8.97-86.53-15.99
						s-31.51-14.81-53.55-18.47s-64.49-11.76-64.49-11.76"/>
					<path class="st2" d="M386.29,162.62c0,0-80.92-3.82-107.76-4.66c-23.18-0.73-66.04,2.57-82.45-1.61
						c-15.16-3.86-45.95-19.46-66.86-23.12s-58.86-7.5-85.8-9.07s-64.9,3.24-76.74,3.24s-53.47-4.44-53.47-4.44"/>
					<path class="st2" d="M390.52,150.53c0,0-53.19-4.09-81.76-4.59s-88.2,2.39-108.25-4.35s-40.59-23.75-88.7-28.24
						S-23,105.97-36.03,104.68s-20.55-1.28-20.55-1.28"/>
					<path class="st2" d="M337.82,136.15c0,0-53.6-5.35-65.62-5.67c-12.03-0.32-45.1,0-57.13-2.25
						c-12.03-2.25-91.71-27.6-121.28-31.45C64.21,92.93-0.94,86.19-14.47,86.83"/>
					<path class="st2" d="M132.75,158.63c0,0-28.02,9.8-52.6,7.87c-24.58-1.93-72.69-22.46-72.69-22.46s51.62-8.14,75.17-5.52
						C106.19,141.14,132.75,158.63,132.75,158.63z"/>
					<path class="st2" d="M0.05,55.5c0,0,46.07,7.9,69.85,10.34c23.78,2.44,99.58,8.3,130.92,11.96s69.56,15.33,69.56,15.33"/>
					<path class="st2" d="M-16.57,68.58c0,0,34.64,7.39,66.04,10.78s117.23,17.67,150.05,24.95c42.35,9.39,59.53,7.34,90.62,18.63"
						/>
				</g>
				<g id="l1Udoj.tif_00000039110184702834295630000012866634488947015853_">
					<path class="st2" d="M6.89-54.11c0,0,47.35,3.66,71.43,3.92c24.08,0.26,100.41-0.78,132.25,0s72.25,8.89,72.25,8.89"/>
					<path class="st2" d="M-7.8-44.7c0,0,35.92,4.18,67.76,4.7s108.17-2.35,142.86-1.31s70,6.53,103.27,14.9"/>
					<path class="st2" d="M-94.75-27.26c0,0,108.57,7.32,136.33,4.7s103.52-8.87,146.38-7.3s71.02,8.97,86.53,15.99
						S306,0.94,328.05,4.6c22.04,3.66,64.49,11.76,64.49,11.76"/>
					<path class="st2" d="M-114.75-13.99c0,0,80.92,3.82,107.76,4.66C16.2-8.6,59.05-11.9,75.46-7.71
						c15.16,3.86,45.95,19.46,66.86,23.12s58.86,7.5,85.8,9.07s64.9-3.24,76.74-3.24s53.47,4.44,53.47,4.44"/>
					<path class="st2" d="M-118.97-1.89c0,0,53.19,4.09,81.76,4.59s88.2-2.39,108.25,4.35s40.59,23.75,88.7,28.24
						s134.81,7.38,147.84,8.67c13.03,1.28,20.55,1.28,20.55,1.28"/>
					<path class="st2" d="M-66.27,12.48c0,0,53.6,5.35,65.62,5.67s45.1,0,57.13,2.25S148.2,48,177.77,51.85s94.72,10.59,108.25,9.95
						"/>
					<path class="st2" d="M138.8-9.99c0,0,28.02-9.8,52.6-7.87S264.09,4.6,264.09,4.6s-51.62,8.14-75.17,5.52S138.8-9.99,138.8-9.99
						z"/>
					<path class="st2" d="M288.12,80.05c0,0-34.64-7.39-66.04-10.78S104.85,51.59,72.03,44.32c-42.35-9.4-59.53-7.35-90.62-18.64"/>
				</g>
			</g>
		</g>
		<g>
			<rect id="SVGID_1_" x="1.56" y="1.69" class="st2" width="210" height="210"/>
		</g>
	</g>
</g>
</svg>
