<?xml version="1.0" encoding="utf-8"?>
<!-- Generator: Adobe Illustrator 28.3.0, SVG Export Plug-In . SVG Version: 6.00 Build 0)  -->
<svg version="1.1" id="Layer_1" xmlns="http://www.w3.org/2000/svg" xmlns:xlink="http://www.w3.org/1999/xlink" x="0px" y="0px"
	 viewBox="0 0 212.91 212.93" style="enable-background:new 0 0 212.91 212.93;" xml:space="preserve">
<style type="text/css">
	.st0{fill:#F9DBA6;}
	.st1{clip-path:url(#SVGID_00000013176883011845155520000003946220631938682775_);}
	.st2{fill:none;stroke:#E2BB7A;stroke-width:3;stroke-linecap:round;stroke-linejoin:round;stroke-miterlimit:10;}
</style>
<g>
	<rect x="1.45" y="1.47" class="st0" width="210" height="210"/>
	<g>
		<g>
			<defs>
				<rect id="SVGID_00000081640554127529266270000011190129357890874503_" x="1.45" y="1.47" width="210" height="210"/>
			</defs>
			<clipPath id="SVGID_00000082343679353744465480000012547966867161174975_">
				<use xlink:href="#SVGID_00000081640554127529266270000011190129357890874503_"  style="overflow:visible;"/>
			</clipPath>
			<g style="clip-path:url(#SVGID_00000082343679353744465480000012547966867161174975_);">
				<g id="l1Udoj.tif_00000021088288992897685150000006759410362384899479_">
					<path class="st2" d="M-51.64,202.53c0,0,47.35-3.66,71.43-3.92s100.41,0.78,132.25,0s72.25-8.89,72.25-8.89"/>
					<path class="st2" d="M-66.33,193.12c0,0,35.92-4.18,67.76-4.7s108.17,2.35,142.86,1.31c34.7-1.05,70-6.53,103.27-14.9"/>
					<path class="st2" d="M-153.28,175.67c0,0,108.58-7.32,136.33-4.7s103.52,8.87,146.38,7.3s71.02-8.97,86.53-15.99
						s31.51-14.81,53.55-18.47S334,132.05,334,132.05"/>
					<path class="st2" d="M-173.28,162.4c0,0,80.92-3.82,107.76-4.66c23.18-0.73,66.04,2.57,82.45-1.61
						c15.16-3.86,45.95-19.46,66.86-23.12c20.9-3.66,58.86-7.5,85.8-9.07s64.9,3.24,76.74,3.24s53.47-4.44,53.47-4.44"/>
					<path class="st2" d="M-177.51,150.31c0,0,53.19-4.09,81.76-4.59s88.2,2.39,108.25-4.35s40.59-23.75,88.7-28.24
						s134.81-7.38,147.84-8.67c13.03-1.28,20.55-1.28,20.55-1.28"/>
					<path class="st2" d="M-124.8,135.93c0,0,53.6-5.35,65.62-5.67c12.03-0.32,45.1,0,57.13-2.25
						c12.03-2.25,91.71-27.6,121.28-31.45s94.72-10.59,108.25-9.95"/>
					<path class="st2" d="M80.27,158.41c0,0,28.02,9.8,52.6,7.87c24.58-1.93,72.69-22.46,72.69-22.46s-51.62-8.14-75.17-5.52
						C106.83,140.92,80.27,158.41,80.27,158.41z"/>
					<path class="st2" d="M212.97,55.28c0,0-46.07,7.9-69.85,10.34S43.54,73.92,12.2,77.58s-69.56,15.33-69.56,15.33"/>
					<path class="st2" d="M229.59,68.36c0,0-34.64,7.39-66.04,10.78S46.32,96.82,13.5,104.1c-42.35,9.39-59.53,7.34-90.62,18.63"/>
				</g>
				<g id="l1Udoj.tif_00000008827147885867138450000003589724684349946302_">
					<path class="st2" d="M206.13-54.33c0,0-47.35,3.66-71.43,3.92c-24.08,0.26-100.41-0.78-132.25,0s-72.25,8.89-72.25,8.89"/>
					<path class="st2" d="M220.82-44.92c0,0-35.92,4.18-67.76,4.7S44.9-42.57,10.2-41.52c-34.7,1.05-70,6.53-103.27,14.9"/>
					<path class="st2" d="M307.76-27.48c0,0-108.58,7.32-136.33,4.7s-103.52-8.86-146.38-7.3s-71.02,8.97-86.53,15.99
						S-92.99,0.72-115.03,4.38s-64.49,11.76-64.49,11.76"/>
					<path class="st2" d="M327.76-14.21c0,0-80.92,3.82-107.76,4.66c-23.18,0.73-66.04-2.57-82.45,1.61
						C122.39-4.08,91.6,11.52,70.69,15.18s-58.86,7.5-85.8,9.07s-64.9-3.24-76.74-3.24s-53.47,4.44-53.47,4.44"/>
					<path class="st2" d="M331.99-2.11c0,0-53.19,4.09-81.76,4.59s-88.2-2.39-108.25,4.35s-40.59,23.75-88.7,28.24
						s-134.81,7.38-147.84,8.67c-13.03,1.28-20.55,1.28-20.55,1.28"/>
					<path class="st2" d="M279.29,12.26c0,0-53.6,5.35-65.62,5.67s-45.1,0-57.13,2.25S64.82,47.78,35.25,51.63
						S-59.47,62.22-73,61.58"/>
					<path class="st2" d="M74.22-10.21c0,0-28.02-9.8-52.6-7.87S-51.07,4.38-51.07,4.38S0.55,12.52,24.1,9.9
						S74.22-10.21,74.22-10.21z"/>
					<path class="st2" d="M-75.1,79.83c0,0,34.64-7.39,66.04-10.78S108.16,51.37,140.98,44.1c42.35-9.39,59.53-7.34,90.62-18.63"/>
				</g>
			</g>
		</g>
		<g>
			<rect id="SVGID_1_" x="1.45" y="1.47" class="st2" width="210" height="210"/>
		</g>
	</g>
</g>
</svg>
