<?xml version="1.0" encoding="utf-8"?>
<!-- Generator: Adobe Illustrator 28.3.0, SVG Export Plug-In . SVG Version: 6.00 Build 0)  -->
<svg version="1.1" id="Layer_1" xmlns="http://www.w3.org/2000/svg" xmlns:xlink="http://www.w3.org/1999/xlink" x="0px" y="0px"
	 viewBox="0 0 216.61 216.14" style="enable-background:new 0 0 216.61 216.14;" xml:space="preserve">
<style type="text/css">
	.st0{fill:#56899B;}
</style>
<g>
	<path class="st0" d="M34.13,108.17c0-23.37,6.51-41.57,19.53-54.59c13.02-13.02,31.15-19.53,54.39-19.53
		c23.83,0,42.19,6.4,55.08,19.19s19.34,30.71,19.34,53.76c0,16.73-2.82,30.45-8.45,41.16c-5.63,10.71-13.77,19.04-24.41,25
		s-23.91,8.94-39.8,8.94c-16.15,0-29.51-2.57-40.09-7.71C59.15,169.23,50.57,161.1,44,149.96C37.42,138.83,34.13,124.9,34.13,108.17
		z M78.37,108.36c0,14.45,2.69,24.84,8.06,31.15c5.37,6.32,12.68,9.47,21.92,9.47c9.51,0,16.86-3.09,22.07-9.28
		c5.21-6.18,7.81-17.29,7.81-33.3c0-13.48-2.72-23.32-8.15-29.54c-5.44-6.22-12.81-9.33-22.12-9.33c-8.92,0-16.08,3.16-21.48,9.47
		C81.07,83.33,78.37,93.78,78.37,108.36z"/>
</g>
</svg>
